Coordinates
version=1
nRows=14
nColumns=33
inDegrees=yes

Units are S.I. units (second, meters, Newtons, ...)
Angles are in degrees.

endheader
time	ground_thorax_rot_x	ground_thorax_rot_y	ground_thorax_rot_z	ground_thorax_tx	ground_thorax_ty	ground_thorax_tz	clav_prot_r	clav_elev_r	scapula_abduction_r	scapula_elevation_r	scapula_upward_rot_r	scapula_winging_r	shoulder_elv_r	plane_of_elev_r	axial_rot_r	elbow_flexion_r	pro_sup_r	wrist_flex_r	wrist_dev_r	clav_prot_l	clav_elev_l	scapula_abduction_l	scapula_elevation_l	scapula_upward_rot_l	scapula_winging_l	shoulder_elv_l	plane_of_elev_l	axial_rot_l	elbow_flexion_l	pro_sup_l	wrist_flex_l	wrist_dev_l
      0.56000000	      0.23558061	     -1.91022398	      0.78758323	     -0.16140153	      0.98643332	     -0.00556370	     -4.93366529	      0.01419770	     -3.96280640	      5.25763679	      4.96986892	     -1.78302337	     39.54606738	    -27.89805371	     22.76731130	     74.97682374	     -7.27318732	      8.34912233	      0.37121975	     -6.24343489	     -4.76476360	      7.96925302	     -3.52377191	     -4.86792389	     -2.41415092	     43.78967511	    -26.32231037	     -3.44306130	     75.99087349	     10.82376285	     15.09659047	      0.73250953
      0.57000000	      0.12919975	     -1.93813607	      0.82164543	     -0.16140296	      0.98614685	     -0.00587176	     -4.72406002	     -0.20559693	     -3.75477543	      5.24162761	      4.50406701	     -1.69925325	     39.63417219	    -26.60227246	     21.86748539	     74.22552922	     -7.86470810	      7.11734317	      0.94594465	     -6.09095156	     -4.89213859	      7.66814722	     -3.40948459	     -4.86833864	     -2.38338343	     43.98785884	    -25.00403092	     -3.28649568	     75.13049166	     10.59483971	     15.82953379	      2.49636341
      0.58000000	      0.09645398	     -1.99598019	      0.76171248	     -0.16113155	      0.98653614	     -0.00620810	     -4.62718008	     -0.76328191	     -3.43902836	      4.75189887	      4.45818097	     -1.66651319	     39.68026977	    -25.79932415	     21.21244429	     73.32133914	     -8.09267559	      6.63791883	      1.06506519	     -5.98271477	     -5.45952439	      7.30101256	     -2.82832752	     -4.72920004	     -2.42770280	     44.12730528	    -24.18955541	     -2.98727786	     74.09275814	     10.60495991	     16.02934434	      3.14646109
      0.59000000	     -0.03338183	     -1.99621565	      0.95262000	     -0.16149814	      0.98578615	     -0.00668264	     -4.10805503	     -0.90033180	     -3.01268287	      5.06646614	      3.35446588	     -1.52324324	     40.06413225	    -24.18301055	     19.79087205	     72.43857180	     -9.32313395	      4.36697335	      2.43231063	     -5.59122240	     -5.40741533	      6.70893751	     -2.99103064	     -4.98728906	     -2.32894733	     44.38359847	    -22.61685951	     -2.56980962	     73.21317159	     10.19706771	     17.70845939	      6.22409280
      0.60000000	     -0.04789668	     -2.02923873	      1.06663485	     -0.16137711	      0.98610982	     -0.00706692	     -3.94023604	     -1.45184048	     -2.54264496	      4.55303223	      3.38303768	     -1.53832066	     40.16342951	    -23.52754984	     19.52060341	     71.28489760	     -9.38013793	      4.04538425	      2.47455985	     -5.40678231	     -6.00103586	      6.19502709	     -2.37498755	     -4.81399942	     -2.34845329	     44.57250264	    -21.98799045	     -2.52972330	     71.90453634	     10.29442107	     17.81198915	      6.61926812
      0.61000000	     -0.20900420	     -2.07541277	      1.09430087	     -0.16159544	      0.98549268	     -0.00755600	     -3.45321835	     -1.84520981	     -2.24494459	      4.76113760	      1.96101343	     -1.27481819	     40.80095152	    -21.57524785	     17.65927657	     70.19558959	    -10.48837909	      1.69235133	      4.01800925	     -5.00631941	     -6.06903694	      5.60320138	     -2.46655785	     -5.17293666	     -2.29056412	     44.89290219	    -20.25296440	     -1.72362183	     70.69254080	      9.83106443	     19.64330368	      9.68934058
      0.62000000	     -0.21486343	     -2.11797113	      1.20571001	     -0.16143198	      0.98576736	     -0.00794408	     -3.26239625	     -2.44911415	     -1.73210343	      4.19637288	      1.99711325	     -1.28683016	     40.92189606	    -20.89107389	     17.40768796	     68.82705474	    -10.50217159	      1.34740312	      4.05074352	     -4.78671143	     -6.69673397	      5.03057296	     -1.81919720	     -4.99703333	     -2.31373825	     45.10189590	    -19.65314523	     -1.70760821	     69.13335972	      9.96489743	     19.74262142	     10.07684267
      0.63000000	     -0.37872833	     -2.15009063	      1.12764144	     -0.16166413	      0.98498135	     -0.00841715	     -2.77929712	     -2.84857081	     -1.40702813	      4.39000893	      0.60555610	     -1.04830744	     41.63492525	    -18.76436155	     15.61045891	     67.49615650	    -11.16232539	     -0.84726968	      5.53832724	     -4.29016791	     -6.74612179	      4.25926492	     -1.91617679	     -5.32039915	     -2.19497224	     45.44374793	    -17.84662399	     -0.85185752	     67.52090176	      9.57820614	     21.43829731	     12.47390356
      0.64000000	     -0.37842052	     -2.18437001	      1.35162339	     -0.16148676	      0.98540490	     -0.00889014	     -2.58673932	     -3.50726274	     -0.90783163	      3.78480877	      0.61574527	     -1.03390556	     41.75224817	    -18.13383518	     15.34363319	     65.84002891	    -11.12951074	     -1.23582001	      5.56166793	     -4.05958900	     -7.40996154	      3.68755648	     -1.25180750	     -5.18266718	     -2.24132082	     45.61554891	    -17.32630519	     -0.80818457	     65.71722381	      9.74999886	     21.53255974	     12.85922725
      0.65000000	     -0.51113918	     -2.20313289	      1.27729535	     -0.16174601	      0.98454169	     -0.00927032	     -2.10623230	     -3.87570534	     -0.59551600	      4.02825233	     -0.82074408	     -0.80456651	     42.56018252	    -15.85057756	     13.56314819	     64.24332653	    -11.34708103	     -3.42418930	      7.14978775	     -3.45948821	     -7.42672422	      2.76376495	     -1.40641958	     -5.56805318	     -2.06925487	     45.95642702	    -15.47795814	      0.22039565	     63.77097968	      9.39579045	     23.16038421	     14.72940878
      0.66000000	     -0.51642967	     -2.23565283	      1.46007158	     -0.16154950	      0.98492364	     -0.00973078	     -1.88778309	     -4.55509588	     -0.05480213	      3.39418224	     -0.78764167	     -0.79314598	     42.68834736	    -15.20061418	     13.32759727	     62.40680012	    -11.25671199	     -3.83168751	      7.17692404	     -3.18678223	     -8.08623060	      2.12499522	     -0.74152799	     -5.41421109	     -2.10143185	     46.17841296	    -15.02267420	      0.18108081	     61.83025685	      9.60127364	     23.24399037	     15.08499530
      0.67000000	     -0.54338319	     -2.27929476	      1.45425296	     -0.16135985	      0.98518501	     -0.01013642	     -1.65048241	     -5.22783559	      0.50058959	      2.77454751	     -0.77118060	     -0.77452963	     42.78804283	    -14.33351953	     12.87588786	     60.45923191	    -11.19611278	     -4.34542674	      7.25912189	     -2.88005849	     -8.69300392	      1.43776938	     -0.12313799	     -5.25032081	     -2.11630623	     46.44776295	    -14.41383079	      0.23225406	     59.80065417	      9.77443570	     23.35956632	     15.47868866
      0.68000000	     -0.64893448	     -2.23290527	      1.50733769	     -0.16181001	      0.98378642	     -0.01036609	     -1.13516589	     -5.18532262	      0.72427173	      3.48964758	     -2.43616760	     -0.61042466	     43.54146310	    -11.49408082	     10.75024937	     58.34642815	    -10.99577391	     -6.71550252	      9.27851371	     -2.02111839	     -8.36415754	      0.22187331	     -0.72611787	     -5.94268568	     -1.75433882	     46.89338539	    -12.32809338	      1.21508820	     57.51131121	      9.16097813	     24.49061061	     16.59725971
      0.69000000	     -0.68486525	     -2.33221036	      1.46680968	     -0.16154231	      0.98419805	     -0.01062476	     -0.89815931	     -5.95110421	      1.27580137	      2.78835041	     -2.43332610	     -0.56939914	     43.74399146	    -10.64430601	     10.44201913	     56.33397664	    -10.78038597	     -7.18868781	      9.42071762	     -1.68232165	     -8.99533179	     -0.51153866	     -0.08852049	     -5.78401832	     -1.75505310	     47.27996362	    -11.94938177	      1.17037409	     55.46136113	      9.33501354	     24.50814248	     16.92711915
